<!DOCTYPE svg PUBLIC "-//W3C//DTD SVG 20010904//EN" "http://www.w3.org/TR/2001/REC-SVG-20010904/DTD/svg10.dtd">
<svg version="1.0" xmlns="http://www.w3.org/2000/svg" width="68px" height="67px" viewBox="0 0 680 670" preserveAspectRatio="xMidYMid meet">
<g id="layer101" fill="#141122" stroke="none">
<path d="M0 335 l0 -335 340 0 340 0 0 335 0 335 -340 0 -340 0 0 -335z"/>
</g>
<g id="layer102" fill="#463b36" stroke="none">
<path d="M193 570 c-13 -5 -23 -16 -23 -24 0 -8 -6 -19 -14 -23 -34 -20 -46 -102 -27 -185 5 -22 5 -40 -1 -46 -6 -6 -5 -18 3 -33 7 -13 15 -37 19 -54 5 -27 10 -30 50 -33 38 -2 48 -8 62 -32 14 -24 24 -30 52 -30 47 0 66 9 76 36 7 19 18 23 57 26 44 3 48 5 53 33 4 17 12 41 19 54 8 15 9 27 3 33 -6 6 -6 24 -1 46 5 20 9 62 9 93 0 46 -4 59 -25 79 -14 13 -25 30 -25 37 0 16 -47 36 -67 29 -7 -3 -13 -15 -13 -26 0 -18 -6 -20 -74 -20 -70 0 -74 1 -80 25 -7 26 -17 29 -53 15z m57 -190 c0 -5 -16 -10 -35 -10 -19 0 -35 5 -35 10 0 6 16 10 35 10 19 0 35 -4 35 -10z m210 0 c0 -5 -16 -10 -35 -10 -19 0 -35 5 -35 10 0 6 16 10 35 10 19 0 35 -4 35 -10z m-123 -221 c-14 -8 -22 -8 -30 0 -8 8 -3 11 19 11 25 -1 27 -2 11 -11z"/>
</g>
<g id="layer103" fill="#53473b" stroke="none">
<path d="M188 559 c-10 -5 -18 -16 -18 -23 0 -8 -10 -20 -22 -28 -20 -13 -23 -24 -22 -79 1 -114 17 -222 37 -246 5 -7 29 -13 53 -13 37 0 44 -3 44 -20 0 -23 28 -40 69 -40 31 0 61 22 61 45 0 9 15 15 46 17 51 3 54 7 75 77 11 36 11 45 1 49 -10 3 -10 7 0 19 7 9 12 47 13 95 0 73 -2 82 -22 95 -13 9 -23 21 -23 29 0 15 -30 34 -54 34 -9 0 -16 -9 -16 -20 0 -18 -7 -20 -85 -20 -78 0 -85 2 -85 20 0 22 -24 26 -52 9z m70 -176 c2 -9 -9 -13 -37 -13 -39 0 -50 8 -34 24 11 11 66 2 71 -11z m210 0 c2 -9 -9 -13 -37 -13 -29 0 -41 4 -41 14 0 18 72 17 78 -1z m-117 -213 c6 0 7 -4 4 -10 -8 -13 -52 -13 -59 -1 -7 11 14 21 32 15 8 -2 18 -4 23 -4z"/>
</g>
<g id="layer104" fill="#544a45" stroke="none">
<path d="M188 559 c-10 -5 -18 -16 -18 -24 0 -8 -6 -18 -14 -22 -29 -17 -38 -54 -31 -124 4 -38 12 -72 17 -75 6 -4 5 -9 -3 -14 -10 -7 -10 -16 0 -52 21 -69 24 -73 74 -76 38 -3 46 -7 49 -24 6 -44 113 -46 124 -2 5 19 13 23 51 26 50 3 53 7 74 76 10 36 10 45 0 52 -8 5 -9 10 -3 14 5 3 13 37 17 75 7 70 -2 107 -31 124 -8 4 -14 14 -14 22 0 16 -30 35 -54 35 -9 0 -16 -8 -16 -19 0 -17 -9 -20 -62 -23 -85 -5 -108 0 -108 23 0 21 -24 25 -52 8z m70 -175 c-5 -25 -78 -26 -78 -1 0 13 9 17 41 17 32 0 40 -3 37 -16z m212 1 c0 -9 -9 -15 -24 -15 -13 0 -31 -3 -40 -6 -12 -4 -16 0 -16 15 0 18 6 21 40 21 29 0 40 -4 40 -15z m-112 -222 c2 -9 -8 -13 -32 -13 -34 0 -44 8 -29 24 11 11 56 2 61 -11z"/>
</g>
<g id="layer105" fill="#67553c" stroke="none">
<path d="M203 562 c-13 -2 -23 -10 -23 -18 0 -8 -12 -26 -27 -39 -26 -22 -28 -29 -27 -93 1 -38 6 -78 12 -88 6 -11 6 -24 1 -33 -7 -11 -4 -33 9 -66 18 -49 19 -50 64 -53 39 -3 47 -7 52 -26 10 -41 102 -40 121 1 7 17 19 23 54 25 44 3 46 4 63 53 13 33 16 55 9 66 -5 9 -5 22 1 32 5 10 10 49 11 88 2 66 0 72 -25 94 -16 13 -28 29 -28 35 0 12 -41 30 -52 23 -5 -2 -8 -13 -8 -24 0 -17 -8 -19 -85 -19 -77 0 -85 2 -85 19 0 24 -8 28 -37 23z m55 -179 c-5 -26 -78 -27 -78 -1 0 14 8 18 41 18 33 0 40 -3 37 -17z m210 1 c-2 -11 -15 -17 -40 -19 -31 -2 -38 1 -38 17 0 14 8 18 41 18 32 0 40 -3 37 -16z m-110 -221 c2 -9 -8 -13 -32 -13 -34 0 -44 8 -29 24 11 11 56 2 61 -11z"/>
</g>
<g id="layer106" fill="#675a4b" stroke="none">
<path d="M203 562 c-13 -2 -23 -10 -23 -18 0 -8 -12 -26 -27 -39 -26 -22 -28 -28 -26 -94 1 -39 6 -78 11 -88 6 -10 6 -23 1 -32 -7 -11 -4 -33 9 -66 18 -49 19 -50 64 -53 40 -3 47 -6 52 -28 6 -23 10 -25 59 -22 42 2 54 7 62 25 7 17 19 23 54 25 45 3 45 3 64 57 17 48 18 56 5 65 -12 9 -13 14 -3 23 17 16 28 124 16 156 -6 15 -19 32 -31 39 -11 7 -20 19 -20 26 0 13 -40 33 -52 25 -5 -2 -8 -13 -8 -24 0 -17 -8 -19 -85 -19 -77 0 -85 2 -85 19 0 24 -8 28 -37 23z m57 -181 c0 -15 -7 -18 -40 -17 -31 0 -40 5 -40 18 0 14 8 18 40 18 32 0 40 -4 40 -19z m210 1 c0 -14 -8 -17 -40 -17 -32 0 -40 3 -40 17 0 14 8 18 40 18 32 0 40 -4 40 -18z m-112 -219 c2 -9 -8 -13 -32 -13 -26 0 -36 4 -36 16 0 19 61 16 68 -3z"/>
</g>
<g id="layer107" fill="#766854" stroke="none">
<path d="M183 543 c-3 -10 -18 -28 -32 -39 -22 -19 -25 -29 -24 -78 1 -31 5 -70 8 -87 6 -26 11 -30 31 -26 13 2 21 0 18 -4 -3 -5 -14 -9 -24 -9 -25 0 -34 -17 -23 -43 6 -12 14 -35 19 -52 8 -27 14 -30 55 -33 35 -2 47 -8 54 -25 8 -17 20 -23 58 -25 43 -3 48 -1 57 22 8 22 16 26 47 26 48 0 56 6 72 55 7 22 15 46 17 53 3 6 -5 16 -18 21 -15 6 -17 10 -7 10 19 1 29 40 29 118 0 43 -4 58 -23 76 -13 12 -26 30 -30 40 -4 10 -17 17 -33 17 -21 0 -25 -4 -21 -20 5 -19 0 -20 -90 -20 -90 0 -94 1 -88 20 5 16 2 20 -20 20 -15 0 -28 -7 -32 -17z m77 -163 c0 -17 -7 -20 -40 -20 -33 0 -40 3 -40 20 0 17 7 20 40 20 33 0 40 -3 40 -20z m210 0 c0 -17 -7 -20 -40 -20 -33 0 -40 3 -40 20 0 17 7 20 40 20 33 0 40 -3 40 -20z m-183 -67 c-4 -3 -10 -3 -14 0 -3 4 0 7 7 7 7 0 10 -3 7 -7z m73 -148 c0 -16 -64 -22 -74 -6 -9 14 5 21 41 21 23 0 33 -5 33 -15z"/>
</g>
<g id="layer108" fill="#7d7163" stroke="none">
<path d="M193 553 c-7 -2 -13 -9 -13 -15 0 -6 -11 -21 -25 -34 -21 -19 -25 -32 -25 -77 0 -87 9 -118 34 -116 42 3 50 -4 11 -10 -43 -6 -43 -7 -26 -75 12 -47 24 -56 78 -56 35 0 42 -3 45 -22 3 -20 9 -23 53 -23 44 0 50 3 53 22 3 19 10 23 42 23 52 0 70 8 70 32 0 10 7 32 15 49 20 38 13 49 -32 49 -41 0 -38 12 4 14 32 1 41 23 42 108 1 52 -2 59 -37 97 -21 23 -46 41 -55 41 -24 0 -21 -19 6 -30 14 -6 -23 -8 -113 -8 -74 0 -125 3 -112 5 12 2 22 11 22 19 0 14 -14 17 -37 7z m67 -173 c0 -14 -10 -19 -40 -22 -37 -3 -40 -2 -40 22 0 24 3 25 40 22 30 -3 40 -8 40 -22z m210 2 c0 -26 -2 -27 -40 -24 -31 3 -40 8 -40 22 0 14 9 20 38 23 20 2 38 4 40 5 1 1 2 -10 2 -26z m-84 -62 c18 -1 18 -1 1 -11 -14 -8 -22 -5 -39 16 l-21 26 -26 -25 c-26 -25 -69 -37 -56 -16 3 6 14 10 24 10 10 0 26 9 36 20 l18 20 22 -20 c12 -11 30 -20 41 -20z m-21 -150 c8 -13 -32 -28 -62 -22 -23 4 -29 13 -16 25 10 11 71 8 78 -3z"/>
</g>
<g id="layer109" fill="#87755a" stroke="none">
<path d="M150 500 c-37 -37 -22 -198 18 -186 9 3 24 1 32 -4 11 -7 8 -10 -15 -10 -51 -1 -56 -9 -38 -65 20 -60 26 -65 80 -65 35 0 42 -3 45 -22 3 -20 9 -23 53 -23 44 0 50 3 53 22 3 18 11 22 49 25 29 2 49 9 53 18 45 91 42 110 -14 110 -16 0 -26 3 -22 8 4 4 20 7 34 7 31 0 40 22 41 108 2 93 -6 97 -194 97 -142 0 -157 -2 -175 -20z m108 -123 c-2 -16 -11 -20 -41 -21 -33 -1 -37 2 -37 24 0 24 3 25 41 22 34 -4 40 -7 37 -25z m212 5 c0 -26 -2 -27 -40 -24 -31 3 -40 8 -40 22 0 14 9 20 33 23 17 2 35 5 40 5 4 1 7 -10 7 -26z m-84 -62 c18 -1 18 -1 1 -11 -14 -8 -22 -5 -39 16 l-21 26 -26 -25 c-26 -25 -69 -37 -56 -16 3 6 14 10 24 10 10 0 26 9 36 20 l18 20 22 -20 c12 -11 30 -20 41 -20z m-21 -150 c8 -13 -32 -28 -62 -22 -23 4 -29 13 -16 25 10 11 71 8 78 -3z"/>
</g>
<g id="layer110" fill="#8a7b66" stroke="none">
<path d="M194 545 c-18 -15 -18 -15 5 -13 14 2 26 9 29 16 5 17 -10 15 -34 -3z"/>
<path d="M420 550 c0 -13 28 -25 38 -16 3 4 0 11 -8 16 -20 13 -30 12 -30 0z"/>
<path d="M170 513 c-8 -3 -21 -12 -27 -21 -15 -19 -17 -120 -4 -156 9 -23 14 -24 76 -22 51 2 71 8 88 24 l23 22 21 -22 c18 -17 34 -21 89 -22 64 -1 68 0 75 24 10 34 10 132 1 146 -18 27 -55 34 -189 33 -76 0 -145 -3 -153 -6z m22 -90 c-5 -25 -4 -26 32 -20 34 5 36 4 36 -23 0 -27 -2 -28 -35 -23 -26 4 -35 2 -36 -8 0 -8 -4 -5 -9 6 -7 18 -5 47 6 83 7 22 11 12 6 -15z m278 -36 c0 -34 -3 -47 -9 -38 -6 9 -19 12 -40 8 -29 -6 -31 -4 -31 21 0 24 4 27 33 27 28 0 32 3 30 23 -2 13 1 21 7 17 6 -3 10 -30 10 -58z"/>
<path d="M300 320 c-12 -16 -26 -20 -80 -20 -88 0 -92 -4 -73 -65 20 -60 26 -65 80 -65 35 0 42 -3 45 -23 3 -19 9 -22 53 -22 44 0 50 3 53 22 3 18 11 22 49 25 29 2 49 9 53 18 49 100 45 110 -50 110 -54 0 -70 4 -85 20 -10 11 -21 20 -24 20 -4 0 -13 -9 -21 -20z m65 -149 c9 -15 -32 -32 -60 -25 -25 6 -31 15 -18 27 10 10 71 8 78 -2z"/>
</g>
<g id="layer111" fill="#978360" stroke="none">
<path d="M162 508 c-29 -14 -36 -44 -29 -120 6 -65 19 -90 38 -71 8 8 16 9 29 1 10 -7 25 -8 36 -3 11 4 28 9 38 10 10 1 25 10 32 20 13 18 15 18 38 -4 14 -13 32 -21 40 -18 9 4 18 2 21 -3 3 -5 27 -8 53 -6 43 2 48 5 53 32 4 16 7 51 8 77 1 38 -4 53 -24 72 -23 24 -28 25 -167 24 -82 0 -153 -5 -166 -11z m34 -80 c-1 -20 4 -23 31 -22 33 2 47 -14 37 -40 -4 -10 -15 -13 -40 -9 -25 4 -34 2 -35 -8 0 -8 -4 -5 -8 6 -9 23 -3 95 8 95 4 0 7 -10 7 -22z m274 -18 c1 -14 2 -35 1 -48 -1 -20 -3 -21 -21 -10 -16 10 -24 10 -39 1 -16 -10 -20 -9 -24 9 -9 33 2 46 36 44 28 -1 32 2 29 24 -2 16 1 21 7 15 5 -6 10 -21 11 -35z"/>
<path d="M300 320 c-12 -16 -26 -20 -80 -20 -88 0 -93 -4 -72 -65 9 -28 21 -53 25 -56 16 -11 296 -7 305 5 14 18 33 96 27 106 -3 6 -37 10 -74 10 -55 0 -71 4 -86 20 -10 11 -21 20 -24 20 -4 0 -13 -9 -21 -20z"/>
<path d="M272 142 c5 -25 101 -25 106 1 3 15 0 16 -24 7 -19 -7 -37 -8 -56 -1 -25 9 -29 8 -26 -7z"/>
</g>
<g id="layer112" fill="#99886e" stroke="none">
<path d="M165 508 c-11 -6 -23 -16 -27 -22 -9 -14 -9 -112 1 -146 11 -38 36 -32 37 10 2 81 5 100 14 100 5 0 9 -10 7 -22 -2 -18 3 -23 23 -23 21 0 25 4 22 25 -2 19 0 22 9 13 6 -6 11 -37 11 -67 0 -61 7 -67 38 -34 l20 22 23 -22 c37 -34 45 -28 45 34 0 30 4 60 9 65 6 6 9 2 9 -13 -1 -14 6 -24 18 -26 27 -6 42 13 26 33 -9 11 -9 15 -1 15 16 0 23 -23 25 -83 1 -39 5 -52 16 -52 17 0 27 38 29 108 1 38 -4 53 -24 72 -23 24 -28 25 -167 25 -88 0 -151 -5 -163 -12z"/>
<path d="M192 338 c4 -31 53 -34 53 -3 0 15 -8 21 -28 23 -25 3 -28 0 -25 -20z"/>
<path d="M404 345 c-4 -9 -2 -21 4 -27 16 -16 47 -5 47 17 0 26 -42 34 -51 10z"/>
<path d="M300 320 c-12 -16 -26 -20 -80 -20 -88 0 -93 -4 -72 -65 9 -28 21 -53 25 -56 5 -4 74 -6 154 -5 160 1 150 -3 173 70 16 49 6 56 -76 56 -48 0 -65 4 -79 20 -10 11 -21 20 -24 20 -4 0 -13 -9 -21 -20z"/>
<path d="M272 143 c5 -26 101 -26 106 -1 3 15 0 16 -28 6 -23 -8 -38 -7 -57 1 -21 10 -24 9 -21 -6z"/>
</g>
<g id="layer113" fill="#aa987a" stroke="none">
<path d="M144 485 c-13 -20 -16 -40 -11 -91 7 -73 12 -85 31 -78 8 3 13 24 13 63 0 67 6 81 36 81 41 0 50 -15 50 -79 -1 -34 2 -61 5 -61 3 0 16 10 28 21 l23 21 27 -21 c15 -11 30 -21 34 -21 4 0 8 26 7 58 0 71 6 82 43 82 37 0 43 -11 43 -82 0 -48 3 -58 16 -56 30 6 41 129 15 166 -15 21 -21 22 -179 22 l-165 0 -16 -25z"/>
<path d="M201 436 c-16 -19 -6 -36 20 -36 15 0 20 6 17 22 -4 27 -21 33 -37 14z"/>
<path d="M408 438 c-8 -21 2 -38 24 -38 14 0 19 6 16 22 -3 25 -33 36 -40 16z"/>
<path d="M197 353 c-13 -13 -7 -32 13 -38 27 -9 39 1 33 25 -5 19 -33 27 -46 13z"/>
<path d="M406 344 c-11 -29 13 -44 42 -26 17 12 4 42 -18 42 -10 0 -21 -7 -24 -16z"/>
<path d="M306 321 c-15 -17 -31 -21 -80 -21 -83 0 -90 -6 -76 -61 7 -24 16 -49 21 -55 11 -14 286 -14 307 -1 6 5 12 17 12 27 0 11 5 31 12 45 16 36 0 45 -80 45 -52 0 -67 4 -81 21 l-16 21 -19 -21z"/>
<path d="M357 148 c-10 -5 -35 -7 -54 -3 -27 5 -34 3 -31 -7 7 -20 97 -23 104 -3 9 21 2 26 -19 13z"/>
</g>
<g id="layer114" fill="#baa784" stroke="none">
<path d="M150 490 c-32 -32 -22 -161 13 -168 15 -3 17 2 12 35 -3 21 -2 52 3 68 7 26 13 30 42 30 31 0 35 -3 42 -35 4 -19 5 -47 2 -62 -7 -34 14 -38 41 -8 l18 20 22 -20 c33 -31 41 -25 41 34 1 66 7 76 44 76 37 0 43 -11 43 -82 0 -40 4 -58 13 -58 14 0 20 16 29 81 7 46 -4 85 -29 101 -6 4 -80 8 -163 8 -140 0 -155 -2 -173 -20z"/>
<path d="M200 425 c0 -8 9 -15 20 -15 11 0 20 7 20 15 0 8 -9 15 -20 15 -11 0 -20 -7 -20 -15z"/>
<path d="M410 425 c0 -8 9 -15 20 -15 11 0 20 7 20 15 0 8 -9 15 -20 15 -11 0 -20 -7 -20 -15z"/>
<path d="M197 346 c-7 -18 1 -26 25 -26 13 0 18 6 16 17 -4 22 -34 29 -41 9z"/>
<path d="M410 340 c0 -13 7 -20 20 -20 13 0 20 7 20 20 0 13 -7 20 -20 20 -13 0 -20 -7 -20 -20z"/>
<path d="M311 327 c-11 -15 -6 -47 9 -47 4 0 13 7 20 16 11 12 11 18 -2 30 -13 13 -16 13 -27 1z"/>
<path d="M158 293 c-10 -2 -18 -7 -18 -10 0 -14 24 -89 31 -97 8 -9 245 -16 285 -9 15 3 25 19 36 56 9 29 14 54 12 57 -3 2 -35 6 -72 8 -53 3 -71 1 -81 -12 -17 -20 -35 -20 -51 -1 -12 15 -99 19 -142 8z"/>
<path d="M280 139 c0 -20 59 -24 83 -6 15 10 10 12 -33 12 -27 0 -50 -3 -50 -6z"/>
</g>
<g id="layer115" fill="#d0ba8e" stroke="none">
<path d="M168 503 c-35 -9 -47 -102 -21 -169 12 -31 23 -10 23 44 0 31 4 63 9 71 9 14 65 20 77 9 3 -4 7 -32 9 -65 3 -32 4 -60 5 -62 0 -3 11 6 24 18 l25 23 28 -22 28 -22 8 63 c4 35 9 64 10 65 1 1 13 5 27 8 42 10 55 -7 56 -76 1 -62 16 -88 28 -46 3 13 6 49 6 80 0 84 -10 88 -185 87 -77 -1 -147 -3 -157 -6z"/>
<path d="M207 434 c-13 -13 -7 -24 14 -24 11 0 19 5 17 12 -5 14 -22 21 -31 12z"/>
<path d="M410 426 c0 -10 9 -16 21 -16 24 0 21 23 -4 28 -10 2 -17 -3 -17 -12z"/>
<path d="M200 336 c0 -10 9 -16 21 -16 24 0 21 23 -4 28 -10 2 -17 -3 -17 -12z"/>
<path d="M410 335 c0 -8 9 -15 20 -15 11 0 20 7 20 15 0 8 -9 15 -20 15 -11 0 -20 -7 -20 -15z"/>
<path d="M316 325 c-8 -22 3 -40 16 -27 7 7 7 16 1 27 -9 16 -10 16 -17 0z"/>
<path d="M140 280 c0 -5 3 -10 8 -10 4 0 8 -17 10 -37 1 -20 8 -41 15 -45 6 -4 77 -7 155 -5 l144 2 14 40 c8 22 16 45 17 50 1 6 -28 11 -69 13 -54 2 -74 -1 -84 -13 -16 -19 -34 -19 -50 0 -14 17 -160 22 -160 5z"/>
<path d="M303 133 c15 -2 37 -2 50 0 12 2 0 4 -28 4 -27 0 -38 -2 -22 -4z"/>
</g>


</svg>