<!DOCTYPE svg PUBLIC "-//W3C//DTD SVG 20010904//EN" "http://www.w3.org/TR/2001/REC-SVG-20010904/DTD/svg10.dtd">
<svg version="1.0" xmlns="http://www.w3.org/2000/svg" width="121px" height="122px" viewBox="0 0 1210 1220" preserveAspectRatio="xMidYMid meet">
<g id="layer101" fill="#18121e" stroke="none">
<path d="M0 610 l0 -610 605 0 605 0 0 610 0 610 -605 0 -605 0 0 -610z"/>
</g>
<g id="layer102" fill="#161223" stroke="none">
<path d="M0 610 l1 -610 604 0 605 0 0 28 c0 23 -4 28 -21 28 -12 -1 -24 5 -26 12 -3 7 5 12 21 12 l26 0 0 570 0 570 -605 0 -605 0 0 -610z m634 496 c28 -13 60 -27 70 -30 10 -4 16 -9 13 -12 -3 -3 -27 4 -53 17 -27 12 -62 22 -79 23 -28 1 -30 -1 -27 -32 2 -28 0 -32 -11 -20 -26 25 -48 76 -28 63 5 -3 12 -1 16 5 10 16 45 12 99 -14z m-233 -14 c21 3 28 1 25 -8 -3 -7 4 -20 15 -30 16 -14 25 -16 47 -8 25 10 27 9 29 -20 1 -17 -1 -26 -5 -21 -4 6 -32 19 -62 29 -30 11 -66 26 -80 33 -33 17 -47 16 -54 -3 -7 -18 4 -41 50 -107 25 -34 34 -58 34 -87 0 -37 -2 -40 -27 -40 -25 0 -26 1 -8 14 19 14 19 15 -5 35 -14 11 -19 20 -12 21 20 0 14 43 -12 80 -34 51 -51 107 -36 124 9 12 16 12 41 -1 17 -8 44 -13 60 -11z m580 -25 c-13 -13 -26 -3 -16 12 3 6 11 8 17 5 6 -4 6 -10 -1 -17z m-161 -37 c8 -5 11 -10 5 -10 -5 0 -17 5 -25 10 -8 5 -10 10 -5 10 6 0 17 -5 25 -10z m-240 -20 c0 -5 -5 -10 -11 -10 -5 0 -7 5 -4 10 3 6 8 10 11 10 2 0 4 -4 4 -10z m365 -10 c4 -6 -6 -7 -27 -3 -44 8 -48 13 -10 13 17 0 34 -4 37 -10z m-675 -16 c11 -13 10 -19 -7 -36 -29 -29 -51 -18 -45 21 5 34 30 42 52 15z m730 -73 c-6 -12 -16 -21 -22 -21 -6 0 -4 8 5 18 10 10 18 27 18 38 1 16 2 16 6 2 2 -9 -1 -26 -7 -37z m-332 -25 c6 -27 -10 -37 -47 -30 l-32 7 23 24 c25 27 51 27 56 -1z m295 -15 c3 -13 1 -18 -9 -14 -7 2 -10 11 -7 19 7 19 10 18 16 -5z m88 -83 c-17 -48 -14 -75 9 -81 11 -3 20 -10 20 -16 0 -16 -47 -13 -53 3 -7 19 2 95 17 129 15 38 21 7 7 -35z m-724 45 c-4 -3 -10 -3 -14 0 -3 4 0 7 7 7 7 0 10 -3 7 -7z m-37 -19 c0 -3 -10 -18 -21 -32 -12 -15 -19 -20 -15 -12 3 8 9 23 12 33 6 16 24 25 24 11z m889 -48 c7 -8 11 -34 9 -58 -4 -59 -29 -59 -41 0 -12 63 4 92 32 58z m-959 -27 c0 -6 -4 -7 -10 -4 -5 3 -10 11 -10 16 0 6 5 7 10 4 6 -3 10 -11 10 -16z m65 -124 c17 -24 33 -45 36 -45 4 0 9 -6 12 -14 4 -9 0 -12 -13 -9 -10 3 -21 16 -24 29 -4 13 -20 31 -36 39 -18 9 -30 23 -30 35 0 29 21 16 55 -35z m829 -18 c-4 -12 -8 -72 -8 -133 -1 -105 -3 -113 -29 -152 -21 -30 -27 -47 -21 -64 4 -13 6 -23 5 -23 -1 0 2 -12 7 -26 6 -14 7 -31 2 -38 -4 -7 -43 -17 -90 -22 -45 -5 -92 -15 -103 -21 -12 -7 -60 -13 -107 -13 -47 -1 -91 -4 -97 -8 -12 -8 -34 2 -98 43 -39 25 -69 12 -42 -18 9 -10 17 -32 17 -48 0 -26 -4 -30 -30 -32 -19 -1 -37 5 -50 18 -11 11 -16 20 -11 20 6 0 13 -4 16 -10 3 -5 19 -10 36 -10 36 0 38 21 5 57 -23 25 -24 28 -8 39 24 18 32 17 88 -11 62 -32 154 -33 274 -5 46 12 97 18 112 15 62 -14 86 19 52 70 -15 24 -15 27 17 76 31 49 33 56 35 158 3 133 13 200 26 177 5 -9 6 -26 2 -39z m-965 -6 c9 -6 10 -11 2 -15 -14 -9 -14 -49 0 -63 8 -8 8 -19 1 -40 -6 -17 -11 -21 -11 -10 -1 9 -5 17 -11 17 -5 0 -13 12 -16 28 -4 15 -11 32 -15 38 -5 6 -2 20 7 32 17 24 22 26 43 13z m107 -38 c-4 -4 -11 -1 -16 7 -16 25 -11 35 7 17 9 -9 13 -20 9 -24z m-73 -140 c5 -47 65 -119 129 -155 21 -12 38 -25 38 -28 0 -19 -16 -17 -45 5 -17 14 -36 25 -42 25 -6 0 -22 18 -37 40 -14 22 -31 40 -37 40 -5 0 -8 4 -5 9 3 5 -1 14 -9 21 -9 8 -15 30 -15 58 0 56 16 45 23 -15z m977 -112 c0 -6 -4 -13 -10 -16 -22 -14 1 -95 27 -95 16 0 17 -16 1 -26 -13 -8 -60 45 -51 59 3 4 -3 18 -14 29 -10 12 -12 18 -5 14 8 -5 16 2 22 18 9 25 30 36 30 17z m-760 -81 c0 -5 -4 -10 -9 -10 -6 0 -13 5 -16 10 -3 6 1 10 9 10 9 0 16 -4 16 -10z m-170 -66 c0 -14 -4 -23 -10 -19 -5 3 -10 15 -10 26 0 10 5 19 10 19 6 0 10 -12 10 -26z m117 -14 c-3 -13 0 -16 14 -13 10 3 20 15 22 27 3 19 5 18 16 -9 7 -16 20 -38 28 -47 15 -16 15 -18 0 -18 -8 0 -23 -3 -32 -6 -10 -4 -15 -2 -13 7 2 9 -8 15 -29 17 -34 3 -41 19 -27 56 8 21 27 9 21 -14z m743 -10 c0 -5 -5 -10 -11 -10 -5 0 -7 5 -4 10 3 6 8 10 11 10 2 0 4 -4 4 -10z m-37 -62 c21 -11 21 -11 2 -19 -11 -4 -32 -8 -47 -8 -22 -1 -28 4 -28 19 0 23 37 28 73 8z m-116 -15 c-4 -3 -10 -3 -14 0 -3 4 0 7 7 7 7 0 10 -3 7 -7z"/>
</g>
<g id="layer103" fill="#251a1c" stroke="none">
<path d="M557 1103 c-9 -14 4 -83 14 -83 5 0 9 -4 9 -10 0 -5 -16 -10 -35 -10 -19 0 -35 3 -35 8 0 4 -19 13 -42 20 -23 7 -61 22 -85 33 -51 23 -59 24 -67 3 -7 -18 4 -41 50 -107 25 -34 34 -58 34 -87 l0 -40 -42 0 c-24 0 -48 -4 -54 -8 -21 -13 -94 -125 -94 -144 0 -10 -4 -18 -10 -18 -11 0 -60 -96 -60 -117 0 -7 4 -21 9 -31 19 -38 30 -69 36 -103 10 -65 134 -179 194 -179 17 0 19 -5 15 -32 -9 -62 51 -135 114 -137 33 -1 37 24 8 55 -23 25 -24 29 -8 40 24 18 32 17 88 -11 62 -32 154 -33 274 -5 46 12 97 18 112 15 62 -14 86 19 52 70 -15 24 -15 27 17 76 31 48 33 57 36 158 1 58 6 132 9 164 l6 57 -35 0 c-19 0 -37 6 -40 13 -7 19 5 109 19 135 7 14 10 31 7 38 -7 18 -43 18 -69 0 -12 -9 -26 -11 -33 -6 -10 6 -6 15 18 35 32 29 40 65 19 82 -7 6 -35 15 -63 21 -86 18 -210 58 -272 87 -43 21 -89 29 -96 18z m111 -217 c6 -27 -10 -37 -47 -30 l-32 7 23 24 c25 27 51 27 56 -1z m-383 -271 c17 -24 33 -45 36 -45 4 0 9 -7 12 -15 5 -12 1 -12 -21 -4 -14 6 -36 8 -48 5 -26 -7 -31 5 -32 71 -1 52 12 49 53 -12z"/>
</g>
<g id="layer104" fill="#251c25" stroke="none">
<path d="M556 1102 c-8 -13 5 -82 14 -77 4 3 10 -4 13 -14 4 -17 0 -18 -37 -13 -22 3 -56 14 -74 24 -18 10 -40 18 -50 18 -9 0 -30 9 -47 20 -36 24 -51 25 -59 5 -6 -17 26 -79 63 -121 16 -19 24 -40 25 -73 l1 -46 -45 3 c-25 1 -50 -1 -56 -5 -22 -15 -94 -126 -94 -145 0 -10 -4 -18 -10 -18 -12 0 -60 -97 -60 -121 0 -10 5 -21 10 -24 6 -3 10 -14 10 -24 0 -10 7 -24 15 -31 8 -7 12 -16 9 -21 -13 -22 11 -75 57 -120 27 -27 53 -49 58 -49 4 0 18 -9 31 -20 13 -11 37 -20 54 -20 23 0 27 -3 18 -12 -26 -26 0 -93 52 -133 61 -47 117 -19 60 30 -24 20 -27 28 -18 42 17 27 47 27 97 -1 40 -22 58 -26 134 -26 49 0 110 7 137 15 27 8 78 15 113 15 74 0 86 13 54 59 -25 35 -26 44 -5 62 37 31 49 73 56 199 3 69 9 142 13 163 7 34 6 37 -17 37 -13 0 -29 -5 -36 -12 -9 -9 -13 -7 -18 6 -9 23 3 138 15 145 9 6 14 26 12 49 -1 15 -36 16 -64 0 -12 -7 -34 -12 -48 -13 -25 0 -24 1 18 43 64 65 57 85 -37 95 -30 4 -56 11 -58 17 -2 5 -15 10 -28 10 -14 0 -35 7 -48 15 -12 8 -36 16 -52 18 -16 1 -55 15 -87 30 -60 28 -82 33 -91 19z m112 -204 c17 -17 15 -45 -3 -52 -8 -3 -26 0 -40 6 -21 9 -28 8 -45 -7 -11 -10 -20 -15 -20 -10 0 11 72 74 86 75 5 0 15 -5 22 -12z m-388 -271 c14 -16 35 -41 47 -55 14 -17 31 -25 50 -24 29 1 29 0 19 -35 -9 -27 -12 -30 -14 -13 -2 14 -13 23 -33 27 -15 3 -34 12 -40 19 -16 19 -46 17 -58 -3 -12 -20 -11 -22 -17 75 -3 58 3 59 46 9z"/>
</g>
<g id="layer105" fill="#2f241d" stroke="none">
<path d="M558 1094 c-3 -3 3 -28 14 -56 l19 -50 -38 6 c-44 8 -173 54 -187 67 -6 5 -16 9 -23 9 -25 0 -13 -47 28 -107 33 -50 40 -68 37 -99 -3 -39 -3 -39 -53 -44 -44 -4 -53 -10 -82 -48 -18 -24 -33 -52 -33 -62 0 -14 71 -120 106 -159 2 -2 16 -4 32 -3 26 0 28 -2 24 -29 -6 -39 -20 -46 -32 -15 -7 18 -17 26 -34 26 -14 0 -28 5 -31 10 -10 16 -42 12 -49 -7 -11 -28 -27 0 -34 58 -4 30 -11 54 -16 54 -12 0 -55 -75 -56 -98 0 -10 9 -35 20 -57 11 -22 20 -52 20 -67 0 -40 32 -87 82 -123 24 -16 49 -35 57 -41 7 -7 27 -15 45 -18 28 -6 31 -10 28 -42 -4 -49 12 -86 50 -109 37 -22 78 -26 78 -8 0 6 -10 22 -22 35 -17 19 -20 28 -12 41 17 26 47 25 97 -2 40 -22 58 -26 134 -26 51 0 109 7 138 16 28 8 75 15 105 15 80 0 88 8 59 58 l-23 41 21 22 c44 48 53 82 53 195 0 60 4 124 10 143 8 27 7 38 -5 50 -12 12 -19 12 -35 3 -13 -9 -21 -9 -26 -2 -9 16 -7 69 6 119 6 25 12 52 13 60 3 21 -29 24 -68 6 -18 -9 -41 -13 -50 -10 -13 5 -8 15 29 51 25 24 46 48 46 52 0 16 -25 28 -85 40 -66 14 -172 50 -253 87 -50 23 -92 30 -104 18z m116 -190 c18 -47 -2 -68 -54 -57 -18 3 -36 0 -45 -7 -12 -10 -15 -10 -15 2 0 15 77 78 96 78 6 0 15 -7 18 -16z"/>
</g>
<g id="layer106" fill="#342c2d" stroke="none">
<path d="M556 1092 c-2 -4 6 -30 19 -57 13 -27 22 -51 20 -53 -2 -2 -18 1 -37 7 -137 44 -166 54 -185 67 -31 19 -43 18 -43 -7 0 -25 14 -53 52 -101 25 -31 29 -45 26 -85 l-3 -48 -46 3 c-43 3 -48 1 -78 -35 -56 -67 -53 -83 32 -186 35 -42 45 -48 69 -45 26 4 29 2 24 -16 -3 -12 -6 -34 -6 -50 0 -24 -2 -27 -15 -16 -8 7 -15 21 -15 31 0 14 -9 21 -30 26 -17 3 -33 10 -36 14 -9 15 -36 10 -50 -8 -17 -25 -23 -15 -32 53 -4 32 -11 58 -16 59 -12 0 -55 -75 -56 -98 0 -10 9 -35 20 -57 11 -22 20 -52 20 -67 0 -39 32 -87 82 -123 24 -16 52 -37 63 -45 10 -8 32 -15 47 -15 28 0 29 -2 22 -35 -8 -47 11 -90 51 -115 59 -37 102 -17 55 25 -27 25 -22 59 8 63 13 2 48 -8 78 -22 66 -32 182 -36 254 -9 25 9 74 17 110 18 96 2 92 0 68 50 l-22 45 21 22 c41 44 53 93 53 215 0 64 5 123 11 135 9 16 7 24 -5 36 -14 14 -19 15 -38 3 -17 -11 -22 -11 -29 1 -5 7 -9 18 -9 24 0 25 24 130 32 141 27 34 -29 44 -72 13 -24 -17 -60 -19 -60 -3 0 3 20 28 45 56 33 36 43 53 35 61 -6 6 -43 18 -83 27 -84 20 -181 53 -252 86 -51 23 -90 29 -99 15z m120 -197 c11 -44 -1 -58 -46 -51 -22 3 -41 2 -45 -4 -9 -14 -25 -12 -25 3 0 15 78 77 97 77 7 0 15 -11 19 -25z"/>
</g>
<g id="layer107" fill="#463b36" stroke="none">
<path d="M560 1087 c0 -7 9 -30 20 -52 32 -63 29 -66 -52 -44 -39 11 -95 31 -123 44 -29 14 -57 25 -63 25 -25 0 -10 -38 45 -109 23 -31 33 -54 33 -80 0 -53 -12 -65 -53 -58 -41 6 -66 -8 -97 -58 -29 -46 -22 -69 40 -144 47 -56 53 -60 82 -54 28 6 31 4 23 -13 -4 -10 -10 -34 -13 -52 -5 -37 -23 -38 -32 -3 -4 16 -18 27 -49 38 -39 13 -45 13 -63 -3 -16 -16 -21 -16 -28 -4 -6 8 -10 32 -10 52 0 75 -19 84 -45 21 -20 -46 -19 -61 5 -108 11 -22 20 -54 20 -73 0 -26 10 -43 50 -82 27 -28 55 -50 63 -50 8 0 20 -7 27 -15 7 -8 28 -15 46 -15 37 0 40 -6 23 -43 -8 -18 -7 -32 5 -60 21 -51 106 -101 106 -63 0 7 -7 19 -15 26 -23 19 -19 59 9 71 19 9 33 6 76 -16 77 -39 147 -43 260 -15 54 13 106 20 129 17 57 -7 70 5 49 44 -24 41 -23 56 7 91 35 41 43 85 46 233 l3 130 -34 0 c-34 0 -35 1 -38 43 -2 24 4 66 13 93 22 66 11 80 -41 50 -24 -14 -46 -20 -61 -16 -32 8 -29 19 12 51 50 38 63 64 39 81 -10 7 -28 13 -40 13 -29 0 -228 67 -286 96 -52 26 -88 31 -88 11z m133 -178 c-6 -6 -9 -17 -6 -24 2 -8 -1 -23 -7 -35 -10 -18 -17 -20 -54 -15 -28 5 -46 3 -51 -4 -7 -12 -25 -6 -25 9 0 21 73 75 108 80 43 6 50 4 35 -11z"/>
</g>
<g id="layer108" fill="#483f43" stroke="none">
<path d="M566 1073 c4 -16 13 -38 20 -50 22 -35 18 -57 -8 -48 -13 3 -41 11 -63 16 -42 10 -92 30 -138 55 -58 32 -51 -15 15 -97 25 -32 29 -43 26 -90 l-3 -54 -46 3 c-42 3 -48 0 -77 -33 -45 -51 -42 -81 15 -156 45 -60 47 -61 85 -55 42 7 44 3 23 -34 -8 -14 -14 -38 -15 -54 0 -23 -3 -26 -14 -17 -8 7 -17 23 -20 36 -5 19 -13 25 -34 25 -15 0 -34 6 -41 13 -10 10 -16 8 -28 -10 -27 -40 -41 -28 -49 44 l-7 67 -18 -23 c-32 -40 -34 -70 -8 -120 13 -24 22 -55 21 -68 -2 -13 4 -35 13 -49 21 -32 77 -83 91 -84 6 0 21 -9 34 -20 13 -12 37 -20 57 -20 30 0 33 -2 23 -19 -26 -50 0 -119 54 -145 19 -9 37 -16 40 -16 12 0 6 22 -13 46 -24 30 -17 62 17 71 17 4 42 -3 81 -23 46 -23 67 -28 126 -27 38 1 99 9 135 19 36 9 91 16 123 15 31 -1 57 1 57 5 0 3 -10 23 -21 44 l-22 38 31 38 c37 47 57 119 49 182 -3 26 -2 76 3 112 8 71 2 87 -26 72 -11 -5 -25 -7 -31 -5 -18 6 -17 101 2 153 8 23 15 44 15 46 0 11 -49 1 -73 -15 -29 -19 -67 -18 -67 2 0 5 20 32 46 59 25 26 42 53 39 58 -3 5 -22 12 -43 15 -61 10 -254 75 -301 101 -60 33 -83 32 -75 -3z m130 -165 c-18 -87 -13 -81 -61 -75 -25 4 -47 2 -50 -3 -10 -16 -35 -11 -35 7 0 29 80 92 118 93 28 0 32 -3 28 -22z"/>
</g>
<g id="layer109" fill="#52463c" stroke="none">
<path d="M567 1094 c-6 -7 11 -64 24 -78 14 -16 10 -46 -6 -46 -19 0 -162 48 -197 66 -61 32 -62 16 -2 -73 43 -64 45 -70 37 -113 l-9 -45 -46 3 c-40 2 -48 -1 -72 -28 -49 -59 -47 -84 18 -170 31 -42 36 -45 75 -42 45 3 47 1 29 -31 -6 -12 -15 -38 -18 -57 l-6 -35 -22 36 c-26 43 -84 60 -112 34 -29 -26 -39 -17 -46 47 l-7 62 -18 -23 c-24 -30 -24 -77 0 -121 10 -20 19 -48 19 -63 0 -35 47 -96 90 -118 18 -9 37 -21 44 -26 7 -6 30 -13 51 -17 33 -6 36 -9 27 -26 -26 -49 1 -121 51 -139 40 -14 44 -10 27 26 -34 67 14 91 98 49 66 -33 164 -37 264 -10 36 9 89 16 118 15 59 -2 65 8 36 59 -16 27 -16 29 14 66 17 22 35 59 40 84 10 47 14 268 6 282 -3 5 -13 4 -23 -1 -33 -18 -44 2 -38 70 4 35 9 79 13 97 5 27 3 32 -12 32 -11 0 -32 -9 -47 -19 -29 -19 -67 -18 -67 2 0 5 21 33 47 60 l47 51 -29 12 c-17 7 -37 13 -46 14 -27 0 -230 70 -281 96 -49 25 -61 28 -71 18z m128 -196 c-14 -72 -13 -71 -61 -64 -24 3 -46 1 -49 -4 -12 -19 -35 -10 -35 13 0 32 74 86 118 87 33 0 33 -1 27 -32z"/>
</g>
<g id="layer110" fill="#574e49" stroke="none">
<path d="M566 1092 c-2 -4 4 -27 15 -51 35 -78 31 -82 -58 -56 -43 12 -100 33 -126 45 -26 12 -50 20 -53 17 -8 -8 13 -45 53 -95 33 -40 34 -45 27 -98 l-7 -56 -44 7 c-36 5 -49 3 -65 -12 -24 -22 -48 -66 -48 -88 0 -13 41 -74 97 -145 2 -2 17 1 34 7 38 15 46 0 24 -43 -8 -16 -15 -39 -15 -51 0 -34 -19 -28 -35 11 -12 27 -21 34 -52 40 -31 5 -40 2 -52 -14 -29 -43 -51 -10 -51 79 l-1 36 -20 -25 c-17 -20 -20 -34 -16 -69 3 -25 12 -50 21 -56 10 -8 15 -25 14 -49 -2 -43 38 -99 91 -127 19 -10 39 -23 45 -29 5 -5 26 -10 46 -10 46 0 53 -7 35 -34 -32 -44 -7 -116 46 -135 40 -14 45 -9 24 23 -19 29 -13 61 16 76 14 8 30 4 71 -17 48 -25 63 -28 153 -28 70 0 115 6 148 18 35 12 63 16 98 11 56 -7 62 2 32 54 -16 28 -16 30 15 73 40 56 49 106 48 249 -1 97 -3 114 -16 111 -42 -10 -45 -7 -48 49 -2 30 2 74 9 98 6 23 9 46 5 49 -4 4 -26 -2 -49 -15 -43 -22 -78 -24 -85 -4 -2 6 18 31 44 55 55 51 54 73 -3 82 -59 10 -243 73 -294 100 -49 26 -65 30 -73 17z m136 -184 c-5 -7 -12 -26 -14 -43 -3 -28 -6 -30 -53 -33 -27 -2 -55 -8 -62 -14 -18 -15 -35 0 -27 25 10 33 73 81 113 87 41 7 59 -3 43 -22z"/>
</g>
<g id="layer111" fill="#65563f" stroke="none">
<path d="M570 1085 c0 -9 7 -32 15 -52 17 -40 20 -73 6 -73 -19 0 -195 62 -218 77 -42 28 -18 -41 31 -86 22 -21 26 -33 26 -81 0 -69 -11 -81 -65 -73 -37 5 -44 2 -68 -27 -39 -45 -35 -80 14 -143 46 -58 65 -72 74 -57 3 5 15 10 27 10 16 0 19 -5 15 -22 -17 -70 -26 -100 -30 -105 -9 -8 -28 8 -37 32 -6 16 -19 24 -46 28 -34 6 -42 3 -65 -23 -43 -47 -47 -85 -12 -128 16 -21 47 -46 68 -57 22 -11 45 -26 53 -32 7 -7 26 -13 41 -13 38 0 41 -6 24 -41 -19 -38 -9 -83 24 -109 24 -19 53 -27 53 -14 0 3 -5 14 -11 25 -13 25 -3 56 22 70 16 8 31 5 71 -16 74 -39 168 -44 277 -16 60 16 97 20 129 15 50 -7 49 -8 21 63 -12 29 -11 33 18 67 36 40 39 59 47 240 l5 118 -30 -6 c-45 -9 -56 27 -35 123 9 41 13 77 10 80 -3 3 -23 -4 -44 -17 -87 -50 -119 -12 -45 53 57 49 56 69 -3 79 -60 9 -251 74 -301 102 -51 28 -61 30 -61 9z m133 -166 c-12 -77 -17 -84 -68 -90 -28 -4 -61 -10 -74 -14 -23 -8 -24 -7 -17 25 3 19 7 34 9 35 1 0 18 13 38 27 49 36 116 46 112 17z m-313 -593 c0 -3 -4 -8 -10 -11 -5 -3 -10 -1 -10 4 0 6 5 11 10 11 6 0 10 -2 10 -4z"/>
</g>
<g id="layer112" fill="#665b50" stroke="none">
<path d="M570 1083 c0 -10 9 -38 20 -62 24 -52 25 -61 6 -61 -23 0 -197 60 -223 77 -42 28 -18 -41 31 -86 22 -21 26 -33 26 -81 0 -69 -11 -81 -65 -73 -37 5 -44 2 -68 -27 -39 -45 -35 -80 14 -143 46 -58 65 -72 74 -57 9 14 45 13 45 -2 0 -6 -4 -25 -10 -42 -5 -17 -12 -43 -15 -59 -7 -36 -19 -34 -39 7 -12 27 -23 35 -53 39 -33 6 -41 3 -64 -23 -43 -47 -47 -85 -12 -128 16 -21 47 -46 68 -57 22 -11 45 -26 53 -32 7 -7 31 -13 53 -13 45 0 46 -3 19 -37 -25 -32 -25 -50 -1 -90 18 -28 56 -52 67 -41 2 2 -2 18 -8 36 -10 27 -9 34 7 51 24 27 37 26 93 -6 42 -24 57 -27 142 -27 66 0 111 5 148 18 39 13 66 16 104 11 56 -8 56 -10 27 61 -12 29 -10 34 13 63 38 44 46 80 51 230 l5 133 -29 -6 c-45 -9 -55 28 -35 123 9 41 13 77 10 80 -3 3 -23 -4 -44 -17 -21 -12 -50 -22 -64 -22 -41 0 -32 33 21 77 56 47 53 67 -9 77 -59 9 -244 73 -297 102 -52 29 -61 30 -61 7z m136 -165 c-4 -13 -9 -36 -12 -53 -8 -39 -8 -39 -55 -36 -24 1 -51 -5 -65 -13 -28 -19 -38 -7 -29 32 9 42 80 84 154 91 9 1 11 -6 7 -21z m-299 -585 c-4 -3 -7 0 -7 7 0 7 3 10 7 7 3 -4 3 -10 0 -14z m-17 -11 c0 -13 -12 -22 -22 -16 -10 6 -1 24 13 24 5 0 9 -4 9 -8z"/>
<path d="M185 591 c-17 -29 -3 -111 19 -111 10 0 11 13 4 57 -10 63 -13 70 -23 54z"/>
</g>
<g id="layer113" fill="#766958" stroke="none">
<path d="M574 1087 c-2 -7 4 -33 15 -58 31 -68 29 -73 -29 -65 -57 8 -80 16 -202 74 -16 8 25 -59 53 -85 24 -23 29 -36 29 -73 0 -83 -5 -90 -65 -90 -56 0 -75 -13 -94 -63 -10 -26 -7 -35 31 -88 41 -59 42 -60 80 -54 45 8 59 -11 34 -47 -9 -12 -16 -36 -16 -53 0 -16 -4 -37 -9 -44 -8 -12 -13 -11 -30 10 -11 13 -20 30 -21 37 0 6 -9 12 -21 12 -11 0 -29 5 -40 10 -14 8 -19 7 -19 -1 0 -6 -11 -24 -25 -41 -14 -16 -25 -39 -25 -52 0 -36 45 -89 90 -107 9 -4 31 7 54 28 26 21 42 29 47 22 10 -17 -1 -49 -22 -62 -29 -18 -23 -27 21 -27 43 0 53 -17 25 -40 -22 -19 -19 -86 5 -110 31 -31 51 -26 43 10 -4 22 0 36 12 50 24 26 36 25 98 -7 45 -24 63 -27 137 -27 51 1 109 8 144 19 38 11 74 15 102 11 24 -3 46 -1 49 3 3 5 -4 26 -16 45 l-21 36 31 35 c40 46 49 86 53 235 l3 125 -32 -3 c-30 -3 -32 0 -39 33 -3 20 -1 63 6 96 7 33 10 63 6 67 -4 3 -24 -2 -44 -14 -43 -23 -82 -21 -82 5 0 9 20 36 45 60 25 24 45 47 45 52 0 5 -12 11 -27 15 -109 24 -246 70 -323 109 -39 20 -52 23 -56 12z m131 -183 c-14 -78 -21 -86 -65 -79 -32 5 -45 3 -67 -15 -24 -18 -28 -19 -36 -5 -25 45 35 119 104 128 75 9 72 10 64 -29z"/>
<path d="M180 546 c0 -23 11 -46 20 -41 10 6 0 55 -11 55 -5 0 -9 -6 -9 -14z"/>
</g>
<g id="layer114" fill="#756c63" stroke="none">
<path d="M574 1087 c-2 -7 7 -38 21 -68 13 -30 25 -59 25 -65 0 -15 44 -23 63 -13 20 11 44 -16 30 -33 -6 -7 -14 -30 -17 -52 l-7 -38 -46 5 c-44 5 -48 3 -92 -42 -25 -25 -52 -59 -60 -76 -7 -16 -17 -38 -22 -47 -5 -10 -9 -27 -9 -38 0 -12 -5 -18 -10 -15 -6 4 -10 -5 -8 -22 1 -15 -6 -39 -15 -53 -34 -52 -18 -224 24 -253 18 -14 18 -15 -7 -43 -21 -24 -24 -36 -20 -69 5 -38 26 -65 53 -65 9 0 10 6 4 23 -12 32 4 65 35 73 21 5 42 0 81 -22 48 -25 62 -28 136 -26 46 1 109 10 144 21 47 14 72 17 100 10 51 -11 61 2 33 42 -19 25 -21 35 -11 48 60 82 76 132 68 209 -3 30 -2 79 3 109 11 64 6 77 -20 63 -14 -7 -23 -6 -36 7 -13 14 -15 28 -10 77 3 34 8 73 12 89 8 34 -11 36 -50 6 -31 -24 -79 -23 -84 3 -2 11 14 34 42 59 53 48 57 66 19 74 -76 16 -264 80 -311 106 -40 22 -54 26 -58 16z m345 -403 c3 -16 1 -17 -13 -5 -19 16 -21 34 -3 29 6 -3 14 -13 16 -24z"/>
<path d="M369 1012 c26 -37 51 -58 51 -43 0 6 -5 11 -11 11 -8 0 -8 4 -1 13 7 9 1 17 -25 30 l-35 17 21 -28z"/>
<path d="M441 855 c1 -46 1 -48 11 -22 7 20 7 35 0 50 -9 18 -11 14 -11 -28z"/>
<path d="M528 883 c7 -3 16 -2 19 1 4 3 -2 6 -13 5 -11 0 -14 -3 -6 -6z"/>
<path d="M520 840 c0 -7 3 -10 7 -7 3 4 3 10 0 14 -4 3 -7 0 -7 -7z"/>
<path d="M333 783 c9 -2 25 -2 35 0 9 3 1 5 -18 5 -19 0 -27 -2 -17 -5z"/>
<path d="M280 690 c0 -5 5 -10 11 -10 5 0 7 5 4 10 -3 6 -8 10 -11 10 -2 0 -4 -4 -4 -10z"/>
<path d="M315 640 c3 -5 11 -10 16 -10 6 0 7 5 4 10 -3 6 -11 10 -16 10 -6 0 -7 -4 -4 -10z"/>
<path d="M180 550 c0 -8 5 -22 10 -30 9 -13 10 -13 10 0 0 8 -5 22 -10 30 -9 13 -10 13 -10 0z"/>
<path d="M271 504 c0 -11 3 -14 6 -6 3 7 2 16 -1 19 -3 4 -6 -2 -5 -13z"/>
<path d="M310 491 c0 -5 11 -16 25 -25 14 -9 25 -12 25 -6 0 5 -5 10 -11 10 -6 0 -9 7 -5 15 4 10 -1 15 -14 15 -11 0 -20 -4 -20 -9z"/>
<path d="M220 408 c0 -8 9 -23 19 -32 19 -17 19 -17 14 3 -7 27 -33 50 -33 29z"/>
<path d="M300 320 c0 -5 7 -10 15 -10 8 0 15 5 15 10 0 6 -7 10 -15 10 -8 0 -15 -4 -15 -10z"/>
</g>
<g id="layer115" fill="#87765c" stroke="none">
<path d="M572 1082 c2 -4 14 -38 28 -75 l25 -68 37 3 c53 3 59 -8 40 -69 l-16 -53 -50 0 c-45 0 -53 -4 -90 -43 -23 -23 -47 -56 -55 -72 -7 -17 -17 -38 -22 -47 -5 -10 -9 -27 -9 -38 0 -12 -5 -18 -10 -15 -6 4 -10 -5 -8 -22 1 -15 -6 -39 -15 -53 -34 -52 -18 -224 24 -253 18 -14 18 -15 -6 -43 -37 -43 -30 -100 15 -124 18 -9 19 -7 18 26 -1 25 4 41 17 50 27 20 50 17 103 -11 39 -21 60 -25 132 -25 53 0 108 7 145 18 34 11 78 17 103 14 47 -5 52 4 26 48 -16 26 -16 29 8 61 47 63 52 80 54 204 1 66 4 127 6 135 2 10 -6 15 -25 16 -16 1 -33 7 -38 15 -12 19 -11 82 2 135 6 25 9 47 6 50 -3 3 -23 -4 -45 -16 -21 -12 -50 -20 -63 -18 -40 5 -34 34 15 79 25 23 46 48 46 54 0 7 -16 16 -36 20 -52 9 -252 78 -301 103 -43 22 -67 28 -61 14z m347 -398 c3 -16 1 -17 -13 -5 -19 16 -21 34 -3 29 6 -3 14 -13 16 -24z"/>
</g>
<g id="layer116" fill="#8b7b67" stroke="none">
<path d="M570 1085 c0 -2 11 -28 24 -57 12 -29 26 -61 30 -72 5 -15 13 -18 46 -13 46 6 56 -4 42 -41 -6 -15 -13 -39 -16 -54 -6 -26 -10 -28 -54 -28 -42 0 -52 -4 -83 -37 -78 -83 -101 -141 -67 -172 18 -18 18 -19 -6 -35 -14 -9 -29 -16 -35 -16 -15 0 -40 -64 -42 -110 -3 -57 19 -138 45 -168 l20 -22 -27 -28 c-40 -41 -33 -97 15 -123 19 -10 20 -9 14 16 -9 36 16 75 50 75 13 0 47 -11 74 -25 40 -20 64 -25 127 -25 43 0 103 8 133 17 30 9 79 15 108 14 56 -2 65 8 37 45 -20 27 -18 48 6 70 43 39 52 73 55 199 1 66 4 127 5 135 3 10 -4 15 -21 15 -14 0 -31 4 -37 8 -16 10 -17 97 -2 150 13 48 7 55 -28 32 -15 -10 -45 -22 -65 -25 -36 -7 -38 -6 -38 18 0 17 14 38 45 66 25 23 45 47 45 53 0 6 -17 14 -37 18 -57 10 -241 73 -295 101 -45 23 -68 29 -68 19z m353 -395 c8 -30 -10 -34 -28 -6 -19 28 -12 54 10 36 7 -6 15 -20 18 -30z"/>
</g>
<g id="layer117" fill="#98896f" stroke="none">
<path d="M583 1058 c46 -108 50 -113 91 -113 43 0 55 -15 38 -48 -6 -12 -13 -35 -14 -52 -3 -29 -4 -30 -57 -30 -53 0 -55 -1 -97 -52 -24 -29 -48 -72 -54 -95 -10 -37 -10 -44 6 -55 17 -12 16 -14 -6 -38 -13 -14 -29 -25 -36 -25 -36 0 -53 -112 -30 -191 9 -29 26 -63 37 -76 l22 -22 -32 -30 c-17 -16 -31 -37 -31 -46 0 -30 30 -74 51 -75 4 0 6 14 5 31 -1 23 6 36 25 51 l26 19 65 -30 c53 -25 78 -31 134 -31 38 0 94 8 124 17 30 9 81 17 113 16 61 -1 65 2 42 33 -20 27 -18 58 5 79 40 36 49 75 53 217 l4 137 -28 -6 c-25 -5 -28 -2 -38 35 -9 31 -8 54 3 101 13 55 13 61 -2 61 -8 0 -23 -6 -31 -14 -9 -7 -33 -16 -53 -20 -37 -7 -38 -6 -38 23 0 23 10 38 45 68 25 20 45 42 45 49 0 6 -18 14 -39 18 -60 9 -251 75 -298 102 -57 33 -66 31 -50 -8z m340 -361 c5 -16 6 -31 3 -35 -10 -10 -59 45 -51 58 12 19 38 7 48 -23z"/>
</g>
<g id="layer118" fill="#9b9185" stroke="none">
<path d="M580 1080 c0 -18 51 -124 63 -132 5 -3 26 -4 45 -1 l35 6 -7 -34 c-3 -19 -9 -51 -12 -73 l-7 -38 -48 5 c-46 6 -49 5 -87 -37 -54 -59 -67 -83 -51 -102 9 -11 8 -14 -5 -14 -20 0 -21 -29 -1 -36 8 -4 15 -12 15 -18 0 -15 -52 -66 -67 -66 -21 0 -33 -28 -35 -86 -2 -69 14 -132 42 -164 26 -30 26 -35 -11 -68 -31 -27 -31 -29 -18 -65 15 -42 39 -49 39 -12 0 28 32 65 56 65 9 0 39 -12 68 -27 45 -24 61 -27 141 -27 58 1 110 7 144 19 36 12 68 15 97 11 24 -3 44 -3 44 1 0 3 -9 21 -20 39 l-21 33 35 46 c40 52 44 68 49 226 l4 117 -31 -2 c-28 -1 -32 3 -40 36 -7 26 -5 54 4 93 7 30 11 58 7 61 -3 3 -25 -5 -49 -17 -80 -42 -77 -41 -84 -15 -7 31 8 59 57 103 41 37 43 53 5 53 -33 0 -230 67 -290 98 -68 36 -66 35 -66 22z m346 -375 c18 -43 18 -55 0 -55 -11 0 -86 72 -86 83 0 2 16 4 36 5 31 1 37 -2 50 -33z"/>
</g>
<g id="layer119" fill="#ab9877" stroke="none">
<path d="M590 1063 c0 -9 10 -38 22 -65 21 -47 23 -48 66 -48 l44 0 -6 -32 c-3 -18 -9 -50 -12 -72 l-7 -38 -44 5 c-39 4 -49 1 -79 -25 -50 -44 -79 -95 -64 -113 10 -12 9 -15 -4 -15 -20 0 -21 -29 -1 -36 8 -4 15 -11 15 -17 0 -15 -51 -67 -66 -67 -22 0 -34 -27 -36 -86 -2 -69 14 -132 42 -164 26 -30 25 -38 -5 -62 -27 -21 -32 -56 -15 -89 15 -27 30 -24 30 6 0 28 32 65 56 65 9 0 39 -12 68 -27 44 -23 63 -27 136 -26 50 0 107 7 139 16 30 10 76 17 102 17 l48 0 -20 35 -21 34 36 47 c41 53 44 69 48 221 l3 112 -30 3 c-41 4 -53 48 -36 130 7 33 10 62 8 64 -2 2 -24 -6 -48 -18 -24 -12 -52 -25 -61 -30 -14 -6 -19 -2 -24 16 -7 30 7 58 53 100 36 33 38 56 4 56 -22 0 -225 66 -263 86 -59 31 -78 35 -78 17z m336 -358 c18 -43 18 -55 0 -55 -11 0 -86 72 -86 83 0 2 16 4 36 5 31 1 37 -2 50 -33z"/>
</g>
<g id="layer120" fill="#aa9c83" stroke="none">
<path d="M590 1061 c0 -10 12 -39 26 -65 24 -42 29 -46 64 -46 21 0 42 -4 45 -10 3 -5 -1 -31 -10 -56 -9 -26 -14 -53 -11 -60 8 -20 -9 -25 -53 -15 -46 10 -53 7 -105 -57 -40 -48 -44 -62 -20 -62 15 0 14 -3 -1 -27 -12 -18 -14 -28 -7 -31 34 -11 -13 -76 -75 -105 -20 -9 -23 -18 -23 -69 0 -69 24 -149 51 -174 26 -24 24 -36 -11 -56 -32 -18 -39 -52 -20 -89 15 -28 30 -23 30 9 0 33 27 62 58 62 12 0 43 -12 69 -27 43 -25 57 -27 138 -26 57 1 110 9 145 21 35 12 71 17 99 14 l44 -4 -21 30 c-28 39 -27 52 4 81 41 40 52 79 55 215 l4 127 -23 -4 c-46 -9 -66 68 -40 154 14 49 7 57 -30 30 -17 -12 -37 -21 -44 -21 -8 0 -23 -9 -32 -19 -17 -19 -17 -20 2 -30 22 -12 57 -100 44 -113 -4 -4 -31 12 -59 37 -28 25 -56 45 -62 45 -24 0 -9 18 19 24 29 5 30 8 30 56 0 47 3 53 46 94 47 46 50 66 10 66 -27 0 -244 74 -298 101 -37 19 -38 19 -38 0z m208 -439 c2 -7 -3 -12 -12 -12 -9 0 -16 7 -16 16 0 17 22 14 28 -4z m-178 -136 c-14 -13 -27 -22 -29 -20 -7 6 31 44 43 44 6 0 -1 -11 -14 -24z"/>
</g>
<g id="layer121" fill="#baa57d" stroke="none">
<path d="M590 1067 c0 -7 11 -37 26 -66 24 -51 26 -53 58 -47 44 8 63 -12 48 -51 -6 -16 -13 -44 -14 -63 l-3 -35 -51 3 c-47 3 -53 1 -87 -35 -41 -41 -56 -75 -38 -81 9 -3 8 -11 -3 -27 -10 -15 -12 -26 -6 -30 24 -15 7 -47 -45 -88 -53 -41 -55 -44 -55 -90 0 -63 25 -150 50 -172 27 -24 25 -39 -5 -53 -30 -14 -41 -52 -24 -84 12 -22 13 -22 17 -3 6 33 43 65 73 65 16 0 48 -11 73 -25 37 -21 58 -25 123 -25 46 0 105 8 143 18 36 11 82 17 103 14 l39 -4 -16 30 c-22 42 -21 49 14 88 38 44 48 86 52 222 3 111 3 113 -18 108 -39 -10 -57 24 -52 96 3 35 8 71 13 81 9 22 -17 24 -35 2 -7 -8 -22 -15 -35 -15 -12 0 -29 -8 -39 -19 -16 -17 -15 -19 7 -34 25 -16 53 -95 39 -109 -4 -4 -31 12 -59 37 -28 25 -56 45 -62 45 -24 0 -9 18 19 24 29 5 30 7 30 60 0 52 2 56 45 94 25 22 45 42 45 45 0 3 -17 9 -37 13 -52 9 -228 71 -285 100 -35 18 -48 21 -48 11z m208 -445 c2 -7 -3 -12 -12 -12 -9 0 -16 7 -16 16 0 17 22 14 28 -4z m-178 -136 c-14 -13 -27 -22 -29 -20 -7 6 31 44 43 44 6 0 -1 -11 -14 -24z"/>
</g>
<g id="layer122" fill="#baa989" stroke="none">
<path d="M590 1067 c0 -8 12 -38 26 -66 26 -50 28 -51 68 -49 33 3 41 -1 44 -16 2 -10 -1 -28 -7 -40 -6 -11 -12 -39 -13 -61 -3 -37 -5 -40 -28 -36 -68 12 -81 7 -124 -43 -26 -31 -37 -50 -28 -53 14 -6 16 -39 2 -48 -7 -4 -7 -13 0 -26 13 -22 0 -46 -43 -79 -15 -12 -27 -28 -27 -35 0 -8 -5 -17 -12 -21 -8 -5 -9 -2 -5 10 5 12 3 16 -5 14 -20 -7 -21 -96 -3 -154 9 -28 27 -62 41 -75 32 -30 30 -48 -6 -61 -36 -12 -48 -46 -29 -80 l14 -23 3 22 c3 20 54 73 71 73 3 0 33 -13 64 -30 50 -26 69 -30 137 -30 50 0 101 7 142 20 42 13 76 17 102 13 l40 -6 -22 37 -23 38 35 38 c44 49 54 88 58 228 l3 113 -27 -6 c-21 -5 -29 -1 -38 16 -13 23 -9 129 5 162 9 21 -17 24 -34 3 -7 -8 -25 -18 -41 -21 -31 -7 -48 -33 -26 -41 12 -5 33 -51 51 -111 10 -35 -11 -28 -68 22 -27 25 -56 44 -63 41 -11 -4 -24 14 -24 35 0 5 13 9 29 9 28 0 30 2 36 55 7 49 12 60 51 94 24 21 44 41 44 44 0 3 -17 9 -37 13 -57 10 -258 82 -298 105 -29 17 -35 18 -35 6z m225 -444 c14 -15 25 -31 25 -35 0 -11 -18 -10 -25 2 -3 6 -15 10 -25 10 -22 0 -34 15 -26 35 8 22 22 18 51 -12z m-185 -142 c-25 -23 -47 -41 -50 -41 -3 0 -6 17 -6 38 l-1 37 51 3 50 3 -44 -40z"/>
</g>
<g id="layer123" fill="#c2ac80" stroke="none">
<path d="M600 1055 c0 -15 29 -73 45 -88 13 -13 20 -15 31 -7 7 7 22 9 34 5 15 -5 20 -15 20 -40 0 -19 -4 -37 -10 -40 -5 -3 -10 -26 -10 -51 0 -48 -7 -52 -67 -35 -30 9 -35 6 -71 -33 -38 -42 -39 -44 -36 -109 3 -63 2 -67 -29 -94 -18 -16 -43 -46 -56 -67 -20 -32 -23 -45 -17 -93 7 -58 24 -101 50 -122 24 -20 19 -38 -14 -58 -19 -11 -30 -25 -30 -40 0 -30 6 -29 37 7 31 38 63 39 123 3 41 -25 53 -27 143 -26 62 1 103 6 113 14 8 7 44 13 79 13 36 1 65 2 65 4 0 2 -7 16 -15 33 -17 32 -16 35 29 92 31 39 31 41 34 174 2 80 0 133 -6 129 -5 -3 -19 2 -32 11 -21 15 -22 21 -18 99 4 85 1 96 -22 69 -7 -8 -23 -15 -35 -15 -29 0 -52 -25 -31 -33 20 -8 42 -53 49 -99 8 -51 -6 -49 -71 8 -28 25 -56 43 -61 40 -9 -6 -28 32 -19 38 1 1 15 7 29 13 22 9 27 20 32 59 4 41 11 54 46 84 l41 37 -117 38 c-65 20 -139 48 -165 61 -46 23 -68 29 -68 19z m215 -432 c14 -15 25 -31 25 -35 0 -11 -18 -10 -25 2 -3 6 -15 10 -25 10 -22 0 -34 15 -26 35 8 22 22 18 51 -12z m-185 -142 c-25 -23 -47 -41 -50 -41 -3 0 -6 17 -6 38 l-1 37 51 3 50 3 -44 -40z"/>
</g>
<g id="layer124" fill="#d0ba8e" stroke="none">
<path d="M600 1052 c0 -13 42 -87 53 -94 6 -4 17 -2 24 3 6 6 21 8 33 4 15 -5 20 -15 20 -40 0 -19 -5 -37 -11 -41 -7 -4 -9 -23 -5 -50 5 -41 4 -44 -17 -44 -12 0 -37 4 -54 9 -30 9 -35 6 -74 -36 -36 -39 -40 -47 -25 -55 14 -8 15 -12 1 -38 -13 -26 -13 -30 1 -44 14 -14 11 -20 -30 -60 -43 -41 -46 -48 -46 -95 0 -47 -12 -68 -23 -38 -2 6 -8 9 -12 5 -14 -14 15 -114 39 -138 39 -36 39 -58 0 -76 -25 -12 -34 -23 -34 -40 0 -31 6 -30 37 6 31 38 63 39 123 3 41 -24 54 -27 138 -26 52 0 104 5 115 10 56 25 89 32 114 22 35 -13 38 -6 17 31 -20 33 -21 30 31 96 29 37 30 40 33 170 3 125 3 132 -15 128 -32 -9 -46 34 -41 120 5 77 1 88 -22 61 -7 -8 -23 -15 -35 -15 -25 0 -41 -25 -21 -33 7 -3 23 -38 36 -78 14 -41 33 -85 42 -98 27 -36 24 -71 -18 -194 -7 -20 -24 -23 -24 -3 0 7 7 30 15 49 8 20 15 60 15 88 0 51 -1 53 -62 108 -33 31 -65 58 -71 60 -10 4 -5 -74 7 -101 11 -24 -20 -35 -42 -15 -12 11 -22 13 -34 6 -13 -7 -18 -3 -23 21 -9 39 9 62 41 54 l24 -6 -15 42 c-21 60 -19 70 13 70 25 0 28 5 40 53 9 40 21 60 52 88 l40 36 -117 38 c-65 20 -140 48 -167 61 -53 25 -66 29 -66 16z m-5 -502 c-8 -24 16 -27 77 -8 29 8 42 8 50 0 8 -8 4 -14 -17 -22 -16 -6 -53 -31 -81 -56 -29 -24 -55 -44 -58 -44 -6 0 -5 119 2 138 8 22 34 14 27 -8z"/>
</g>


</svg>